<svg width="512" height="512" viewBox="0 0 530 530" fill="none" xmlns="http://www.w3.org/2000/svg">
<g transform="translate(-75, 19)">
<path d="M460 60H220C175.817 60 140 95.8172 140 140V380C140 424.183 175.817 460 220 460H460C504.183 460 540 424.183 540 380V140C540 95.8172 504.183 60 460 60Z" fill="white" stroke="#E0DAD5" stroke-width="2.5"/>
<path d="M460 60H220C175.817 60 140 84.6243 140 115C140 145.376 175.817 170 220 170H460C504.183 170 540 145.376 540 115C540 84.6243 504.183 60 460 60Z" fill="black"/>
<path d="M540 111H140V170H540V111Z" fill="black"/>
<path d="M242 43C242 36.9249 237.075 32 231 32C224.925 32 220 36.9249 220 43V81C220 87.0751 224.925 92 231 92C237.075 92 242 87.0751 242 81V43Z" fill="black"/>
<path d="M460 43C460 36.9249 455.075 32 449 32C442.925 32 438 36.9249 438 43V81C438 87.0751 442.925 92 449 92C455.075 92 460 87.0751 460 81V43Z" fill="black"/>
<path d="M245.429 253.648H301.317V265.52H245.429V253.648ZM244.421 305.84L242.853 293.744C248.901 293.744 255.471 293.707 262.565 293.632C269.658 293.483 276.863 293.221 284.181 292.848C291.498 292.475 298.517 291.915 305.237 291.168L306.245 302.032C299.375 303.152 292.282 304.011 284.965 304.608C277.722 305.131 270.629 305.467 263.685 305.616C256.815 305.765 250.394 305.84 244.421 305.84ZM253.717 263.056H267.941V297.776H253.717V263.056ZM278.805 263.056H293.141V297.776H278.805V263.056ZM256.517 313.792H327.189V349.968H312.293V325.776H256.517V313.792ZM312.293 246.256H327.189V309.536H312.293V246.256ZM396.508 269.104H422.492V281.088H396.508V269.104ZM372.652 250.512C377.879 250.512 382.545 251.595 386.652 253.76C390.833 255.851 394.119 258.763 396.508 262.496C398.897 266.155 400.092 270.411 400.092 275.264C400.092 280.043 398.897 284.299 396.508 288.032C394.119 291.765 390.833 294.715 386.652 296.88C382.545 298.971 377.879 300.016 372.652 300.016C367.5 300.016 362.833 298.971 358.652 296.88C354.545 294.715 351.297 291.765 348.908 288.032C346.519 284.299 345.324 280.043 345.324 275.264C345.324 270.411 346.519 266.155 348.908 262.496C351.297 258.763 354.545 255.851 358.652 253.76C362.833 251.595 367.5 250.512 372.652 250.512ZM372.652 262.832C370.113 262.832 367.836 263.317 365.82 264.288C363.879 265.259 362.348 266.677 361.228 268.544C360.108 270.411 359.548 272.651 359.548 275.264C359.548 277.803 360.108 280.005 361.228 281.872C362.348 283.739 363.879 285.157 365.82 286.128C367.836 287.099 370.113 287.584 372.652 287.584C375.191 287.584 377.431 287.099 379.372 286.128C381.388 285.157 382.956 283.739 384.076 281.872C385.196 280.005 385.756 277.803 385.756 275.264C385.756 272.651 385.196 270.411 384.076 268.544C382.956 266.677 381.388 265.259 379.372 264.288C377.431 263.317 375.191 262.832 372.652 262.832ZM415.884 246.256H430.892V301.92H415.884V246.256ZM362.012 306.512H376.796V316.256H416.108V306.512H430.892V348.848H362.012V306.512ZM376.796 327.68V336.976H416.108V327.68H376.796Z" fill="black"/>
</g>
</svg>
